<?xml version="1.0" encoding="utf-8"?>
<!-- Generator: Adobe Illustrator 24.3.0, SVG Export Plug-In . SVG Version: 6.00 Build 0)  -->
<svg version="1.1" id="Ebene_1" xmlns="http://www.w3.org/2000/svg" xmlns:xlink="http://www.w3.org/1999/xlink" x="0px" y="0px"
	 viewBox="0 0 960 477" style="enable-background:new 0 0 960 477;" xml:space="preserve">
<style type="text/css">
	.st0{fill:#3E4B9A;}
	.st1{fill:#353435;}
</style>
<g>
	<g>
		<path class="st0" d="M807.15,73.07c-5.86-5.86-15.36-5.86-21.22,0c-4.68,4.68-5.56,11.65-2.76,17.26l-20.82,20.82
			c-6.83-5.51-14.9-8.7-23.18-9.59V55.33c4.87-0.92,9.52-3.25,13.28-7.01c9.96-9.96,9.96-26.11,0-36.07
			c-9.96-9.96-26.11-9.96-36.07,0c-9.96,9.96-9.96,26.11,0,36.07c3.77,3.77,8.42,6.1,13.28,7.01v46.23
			c-8.28,0.88-16.35,4.07-23.18,9.59L686.96,91.6c3.91-6.87,3.01-15.73-2.85-21.59c-7.03-7.03-18.43-7.03-25.46,0
			s-7.03,18.43,0,25.46c5.86,5.86,14.72,6.76,21.59,2.85l19.55,19.55c-14.12,17.48-13.07,43.15,3.17,59.39
			c17.38,17.38,45.56,17.38,62.94,0c16.24-16.24,17.3-41.92,3.18-59.39l20.82-20.82c5.61,2.79,12.58,1.91,17.26-2.76
			C813.01,88.43,813.01,78.93,807.15,73.07z"/>
		<path class="st0" d="M947.53,220.98c-9.96-9.96-26.11-9.96-36.07,0c-3.77,3.77-6.1,8.42-7.01,13.28h-46.23
			c-0.88-8.28-4.07-16.35-9.59-23.18l19.55-19.55c6.87,3.91,15.73,3.01,21.59-2.85c7.03-7.03,7.03-18.43,0-25.46
			c-7.03-7.03-18.43-7.03-25.46,0c-5.86,5.86-6.76,14.72-2.85,21.59l-19.55,19.55c-17.48-14.12-43.15-13.07-59.39,3.17
			c-17.38,17.38-17.38,45.56,0,62.94c16.24,16.24,41.92,17.3,59.39,3.18l20.82,20.82c-2.79,5.61-1.91,12.58,2.76,17.26
			c5.86,5.86,15.36,5.86,21.22,0c5.86-5.86,5.86-15.36,0-21.21c-4.68-4.68-11.65-5.55-17.26-2.76l-20.82-20.82
			c5.51-6.83,8.7-14.9,9.59-23.18h46.23c0.92,4.87,3.25,9.52,7.01,13.28c9.96,9.96,26.11,9.96,36.07,0
			C957.49,247.09,957.49,230.94,947.53,220.98z"/>
		<path class="st0" d="M810.22,381.96c-5.86-5.86-14.72-6.76-21.59-2.85l-19.55-19.55c14.12-17.48,13.07-43.15-3.18-59.39
			c-17.38-17.38-45.56-17.38-62.94,0c-16.24,16.24-17.3,41.92-3.17,59.39l-20.82,20.82c-5.61-2.79-12.58-1.91-17.26,2.76
			c-5.86,5.86-5.86,15.36,0,21.21c5.86,5.86,15.36,5.86,21.22,0c4.68-4.68,5.55-11.65,2.76-17.26l20.82-20.82
			c6.83,5.51,14.9,8.7,23.18,9.59v46.23c-4.87,0.92-9.52,3.25-13.28,7.01c-9.96,9.96-9.96,26.11,0,36.07
			c9.96,9.96,26.11,9.96,36.07,0c9.96-9.96,9.96-26.11,0-36.07c-3.77-3.77-8.42-6.1-13.28-7.01v-46.23
			c8.28-0.88,16.35-4.07,23.18-9.59l19.55,19.55c-3.91,6.87-3.01,15.73,2.85,21.59c7.03,7.03,18.43,7.03,25.46,0
			C817.25,400.39,817.25,388.99,810.22,381.96z"/>
	</g>
	<g>
		<path class="st1" d="M6,356.31v-235.2h98.95c26.8,0,46.35,4.94,58.66,14.84c12.31,9.89,18.53,23.45,18.67,40.68l0.82,109.85
			c0,23.53-6.36,41.04-19.08,52.56c-12.72,11.52-33.22,17.27-61.51,17.27H6z M78.23,162.75v150.6c0.41-0.1,1.22-0.15,2.45-0.15
			c0.82,0,2.35,0.05,4.59,0.15c2.24,0.1,4.05,0.15,5.41,0.15c13.74,0,20.61-4.18,20.61-12.55V184.89c0-8.56-1.87-14.45-5.61-17.64
			c-3.74-3.2-10.24-4.8-19.48-4.8C84.69,162.45,82.03,162.55,78.23,162.75z"/>
		<path class="st1" d="M214.11,356.31v-235.2h143.64v45.62h-70.59v45.92h67.74v44.14h-67.74v53.6h75.29v45.92H214.11z"/>
		<path class="st1" d="M389.98,356.31v-235.2h143.64v45.92H462.2v37.21h67.74v45.33H462.2v106.75H389.98z"/>
		<path class="st1" d="M558.1,356.31v-235.2h69.37v235.2H558.1z"/>
	</g>
</g>
</svg>
